<svg xmlns="http://www.w3.org/2000/svg" xmlns:xlink="http://www.w3.org/1999/xlink" width="1326" height="670" style="border: 1px solid black; overflow: hidden;"><defs/><g id="container"><g id="container_1" transform="matrix(1.0322,0.0000,0.0000,1.0322,20.9167,149.83)"><g id="container_2"/><g id="container_3"><text id="text" transform="matrix(-0.0000,-1.0000,1.0000,-0.0000,1005.9377,-18.00)" fill="#000000" style="font-size:18px;font-family:Arial;">0</text><path d="M 1000 -15L 1000 434.99999999999994" style="fill:none;stroke:#0000ff;stroke-linecap:butt;stroke-miterlimit:10;" id="shape"/><text id="text_1" transform="matrix(-0.0000,-1.0000,1.0000,-0.0000,905.9393,-18.00)" fill="#000000" style="font-size:18px;font-family:Arial;">80.6</text><path d="M 900.0016185062484 -15L 900.0016185062484 434.99999999999994" style="fill:none;stroke:#0000ff;stroke-linecap:butt;stroke-miterlimit:10;" id="shape_1"/><text id="text_2" transform="matrix(-0.0000,-1.0000,1.0000,-0.0000,805.9409,-18.00)" fill="#000000" style="font-size:18px;font-family:Arial;">161.2</text><path d="M 800.0032370124968 -15L 800.0032370124968 434.99999999999994" style="fill:none;stroke:#0000ff;stroke-linecap:butt;stroke-miterlimit:10;" id="shape_2"/><text id="text_3" transform="matrix(-0.0000,-1.0000,1.0000,-0.0000,705.9425,-18.00)" fill="#000000" style="font-size:18px;font-family:Arial;">241.8</text><path d="M 700.0048555187452 -15L 700.0048555187452 434.99999999999994" style="fill:none;stroke:#0000ff;stroke-linecap:butt;stroke-miterlimit:10;" id="shape_3"/><text id="text_4" transform="matrix(-0.0000,-1.0000,1.0000,-0.0000,605.9442,-18.00)" fill="#000000" style="font-size:18px;font-family:Arial;">322.4</text><path d="M 600.0064740249936 -15L 600.0064740249936 434.99999999999994" style="fill:none;stroke:#0000ff;stroke-linecap:butt;stroke-miterlimit:10;" id="shape_4"/><text id="text_5" transform="matrix(-0.0000,-1.0000,1.0000,-0.0000,505.9458,-18.00)" fill="#000000" style="font-size:18px;font-family:Arial;">403</text><path d="M 500.008092531242 -15L 500.008092531242 434.99999999999994" style="fill:none;stroke:#0000ff;stroke-linecap:butt;stroke-miterlimit:10;" id="shape_5"/><text id="text_6" transform="matrix(-0.0000,-1.0000,1.0000,-0.0000,405.9474,-18.00)" fill="#000000" style="font-size:18px;font-family:Arial;">483.6</text><path d="M 400.00971103749043 -15L 400.00971103749043 434.99999999999994" style="fill:none;stroke:#0000ff;stroke-linecap:butt;stroke-miterlimit:10;" id="shape_6"/><text id="text_7" transform="matrix(-0.0000,-1.0000,1.0000,-0.0000,305.9490,-18.00)" fill="#000000" style="font-size:18px;font-family:Arial;">564.2</text><path d="M 300.01132954373884 -15L 300.01132954373884 434.99999999999994" style="fill:none;stroke:#0000ff;stroke-linecap:butt;stroke-miterlimit:10;" id="shape_7"/><text id="text_8" transform="matrix(-0.0000,-1.0000,1.0000,-0.0000,205.9506,-18.00)" fill="#000000" style="font-size:18px;font-family:Arial;">644.8</text><path d="M 200.01294804998722 -15L 200.01294804998722 434.99999999999994" style="fill:none;stroke:#0000ff;stroke-linecap:butt;stroke-miterlimit:10;" id="shape_8"/><text id="text_9" transform="matrix(-0.0000,-1.0000,1.0000,-0.0000,105.9522,-18.00)" fill="#000000" style="font-size:18px;font-family:Arial;">725.4</text><path d="M 100.0145665562356 -15L 100.0145665562356 434.99999999999994" style="fill:none;stroke:#0000ff;stroke-linecap:butt;stroke-miterlimit:10;" id="shape_9"/><text id="text_10" transform="matrix(-0.0000,-1.0000,1.0000,-0.0000,5.9539,-18.00)" fill="#000000" style="font-size:18px;font-family:Arial;">806</text><path d="M 0.016185062483970114 -15L 0.016185062483970114 434.99999999999994" style="fill:none;stroke:#0000ff;stroke-linecap:butt;stroke-miterlimit:10;" id="shape_10"/><text id="text_11" transform="matrix(-0.0000,-1.0000,1.0000,-0.0000,955.9385,-18.00)" fill="#000000" style="font-size:18px;font-family:Arial;">40.3</text><path d="M 951.0008092531243 -15L 951.0008092531243 434.99999999999994" style="fill:none;stroke:#aaaaaa;stroke-linecap:butt;stroke-miterlimit:10;" id="shape_11"/><text id="text_12" transform="matrix(-0.0000,-1.0000,1.0000,-0.0000,855.9401,-18.00)" fill="#000000" style="font-size:18px;font-family:Arial;">120.9</text><path d="M 851.0024277593727 -15L 851.0024277593727 434.99999999999994" style="fill:none;stroke:#aaaaaa;stroke-linecap:butt;stroke-miterlimit:10;" id="shape_12"/><text id="text_13" transform="matrix(-0.0000,-1.0000,1.0000,-0.0000,755.9417,-18.00)" fill="#000000" style="font-size:18px;font-family:Arial;">201.5</text><path d="M 751.0040462656211 -15L 751.0040462656211 434.99999999999994" style="fill:none;stroke:#aaaaaa;stroke-linecap:butt;stroke-miterlimit:10;" id="shape_13"/><text id="text_14" transform="matrix(-0.0000,-1.0000,1.0000,-0.0000,655.9433,-18.00)" fill="#000000" style="font-size:18px;font-family:Arial;">282.1</text><path d="M 651.0056647718695 -15L 651.0056647718695 434.99999999999994" style="fill:none;stroke:#aaaaaa;stroke-linecap:butt;stroke-miterlimit:10;" id="shape_14"/><text id="text_15" transform="matrix(-0.0000,-1.0000,1.0000,-0.0000,555.9450,-18.00)" fill="#000000" style="font-size:18px;font-family:Arial;">362.7</text><path d="M 551.0072832781179 -15L 551.0072832781179 434.99999999999994" style="fill:none;stroke:#aaaaaa;stroke-linecap:butt;stroke-miterlimit:10;" id="shape_15"/><text id="text_16" transform="matrix(-0.0000,-1.0000,1.0000,-0.0000,455.9466,-18.00)" fill="#000000" style="font-size:18px;font-family:Arial;">443.3</text><path d="M 451.00890178436634 -15L 451.00890178436634 434.99999999999994" style="fill:none;stroke:#aaaaaa;stroke-linecap:butt;stroke-miterlimit:10;" id="shape_16"/><text id="text_17" transform="matrix(-0.0000,-1.0000,1.0000,-0.0000,355.9482,-18.00)" fill="#000000" style="font-size:18px;font-family:Arial;">523.9</text><path d="M 351.01052029061475 -15L 351.01052029061475 434.99999999999994" style="fill:none;stroke:#aaaaaa;stroke-linecap:butt;stroke-miterlimit:10;" id="shape_17"/><text id="text_18" transform="matrix(-0.0000,-1.0000,1.0000,-0.0000,255.9498,-18.00)" fill="#000000" style="font-size:18px;font-family:Arial;">604.5</text><path d="M 251.01213879686316 -15L 251.01213879686316 434.99999999999994" style="fill:none;stroke:#aaaaaa;stroke-linecap:butt;stroke-miterlimit:10;" id="shape_18"/><text id="text_19" transform="matrix(-0.0000,-1.0000,1.0000,-0.0000,155.9514,-18.00)" fill="#000000" style="font-size:18px;font-family:Arial;">685.1</text><path d="M 151.01375730311156 -15L 151.01375730311156 434.99999999999994" style="fill:none;stroke:#aaaaaa;stroke-linecap:butt;stroke-miterlimit:10;" id="shape_19"/><text id="text_20" transform="matrix(-0.0000,-1.0000,1.0000,-0.0000,55.9531,-18.00)" fill="#000000" style="font-size:18px;font-family:Arial;">765.7</text><path d="M 51.01537580935994 -15L 51.01537580935994 434.99999999999994" style="fill:none;stroke:#aaaaaa;stroke-linecap:butt;stroke-miterlimit:10;" id="shape_20"/><path d="M 0 -15L 1000 -15" style="fill:none;stroke:#000000;stroke-linecap:butt;stroke-miterlimit:10;" id="shape_21"/></g><g id="container_4"><g id="I11"><path d="M 1005 60L 999.9999999999991 60" style="fill:none;stroke:#aaaaaa;stroke-width:0.3;stroke-linecap:round;stroke-miterlimit:10;stroke-dasharray:5,10;" id="shape_22"/><text id="text_21" transform="matrix(1.0000,0.0000,0.0000,1.0000,1005.0000,66.60)" fill="#000000" style="font-size:20px;font-family:Arial;">Felis chaus</text><path d="M 999.9999999999991 60L 990.402226467368 60" style="fill:none;stroke:#000000;stroke-width:2;stroke-linecap:round;stroke-miterlimit:10;" id="shape_23"/></g><g id="I7"><path d="M 1005 150L 999.9999999999993 150" style="fill:none;stroke:#aaaaaa;stroke-width:0.3;stroke-linecap:round;stroke-miterlimit:10;stroke-dasharray:5,10;" id="shape_24"/><text id="text_22" transform="matrix(1.0000,0.0000,0.0000,1.0000,1005.0000,156.60)" fill="#000000" style="font-size:20px;font-family:Arial;">Felis catus</text><path d="M 999.9999999999993 150L 999.0782751517644 150" style="fill:none;stroke:#000000;stroke-width:2;stroke-linecap:round;stroke-miterlimit:10;" id="shape_25"/></g><g id="I12"><path d="M 1005 30L 999.9999999999991 30" style="fill:none;stroke:#aaaaaa;stroke-width:0.3;stroke-linecap:round;stroke-miterlimit:10;stroke-dasharray:5,10;" id="shape_26"/><text id="text_23" transform="matrix(1.0000,0.0000,0.0000,1.0000,1005.0000,36.60)" fill="#000000" style="font-size:20px;font-family:Arial;">Felis nigripes</text><path d="M 999.9999999999991 30L 989.6695729994061 30" style="fill:none;stroke:#000000;stroke-width:2;stroke-linecap:round;stroke-miterlimit:10;" id="shape_27"/></g><g id="I4"><path d="M 997.9498479782712 116.25L 990.402226467368 116.25M 997.9498479782712 142.5L 997.9498479782712 90" style="fill:none;stroke:#000000;stroke-width:2;stroke-linecap:round;stroke-miterlimit:10;" id="shape_28"/></g><g id="I17"><path d="M 996.5246645751658 345.00000000000006L 991.5672670107766 345.00000000000006M 996.5246645751658 360L 996.5246645751658 330.00000000000006" style="fill:none;stroke:#000000;stroke-width:2;stroke-linecap:round;stroke-miterlimit:10;" id="shape_29"/></g><g id="I22"><path d="M 1005 420L 999.9999999999993 420" style="fill:none;stroke:#aaaaaa;stroke-width:0.3;stroke-linecap:round;stroke-miterlimit:10;stroke-dasharray:5,10;" id="shape_30"/><text id="text_24" transform="matrix(1.0000,0.0000,0.0000,1.0000,1005.0000,426.60)" fill="#000000" style="font-size:20px;font-family:Arial;">Panthera pardus orientalis</text><path d="M 999.9999999999993 420L 999.7901131293643 420" style="fill:none;stroke:#000000;stroke-width:2;stroke-linecap:round;stroke-miterlimit:10;" id="shape_31"/></g><g id="I13"><path d="M 986.7948866068007 264.375L 976.4670052437185 264.375M 986.7948866068007 303.75L 986.7948866068007 225.00000000000003" style="fill:none;stroke:#000000;stroke-width:2;stroke-linecap:round;stroke-miterlimit:10;" id="shape_32"/></g><g id="I5"><path d="M 998.7975822100695 142.5L 997.9498479782712 142.5M 998.7975822100695 165L 998.7975822100695 120" style="fill:none;stroke:#000000;stroke-width:2;stroke-linecap:round;stroke-miterlimit:10;" id="shape_33"/></g><g id="I27"><path d="M 1005 240.00000000000003L 999.9999999999991 240.00000000000003" style="fill:none;stroke:#aaaaaa;stroke-width:0.3;stroke-linecap:round;stroke-miterlimit:10;stroke-dasharray:5,10;" id="shape_34"/><text id="text_25" transform="matrix(1.0000,0.0000,0.0000,1.0000,1005.0000,246.60)" fill="#000000" style="font-size:20px;font-family:Arial;">Panthera tigris amoyensis</text><path d="M 999.9999999999991 240.00000000000003L 998.1248855409648 240.00000000000003" style="fill:none;stroke:#000000;stroke-width:2;stroke-linecap:round;stroke-miterlimit:10;" id="shape_35"/></g><g id="I19"><path d="M 1005 360L 999.9999999999991 360" style="fill:none;stroke:#aaaaaa;stroke-width:0.3;stroke-linecap:round;stroke-miterlimit:10;stroke-dasharray:5,10;" id="shape_36"/><text id="text_26" transform="matrix(1.0000,0.0000,0.0000,1.0000,1005.0000,366.60)" fill="#000000" style="font-size:20px;font-family:Arial;">Panthera leo spelaea</text><path d="M 999.9999999999991 360L 996.5246645751658 360" style="fill:none;stroke:#000000;stroke-width:2;stroke-linecap:round;stroke-miterlimit:10;" id="shape_37"/></g><g id="I24"><path d="M 1005 270.00000000000006L 999.9999999999991 270.00000000000006" style="fill:none;stroke:#aaaaaa;stroke-width:0.3;stroke-linecap:round;stroke-miterlimit:10;stroke-dasharray:5,10;" id="shape_38"/><text id="text_27" transform="matrix(1.0000,0.0000,0.0000,1.0000,1005.0000,276.60)" fill="#000000" style="font-size:20px;font-family:Arial;">Panthera onca</text><path d="M 999.9999999999991 270.00000000000006L 987.8560659443366 270.00000000000006" style="fill:none;stroke:#000000;stroke-width:2;stroke-linecap:round;stroke-miterlimit:10;" id="shape_39"/></g><g id="I6"><path d="M 999.0782751517644 165L 998.7975822100695 165M 999.0782751517644 180L 999.0782751517644 150" style="fill:none;stroke:#000000;stroke-width:2;stroke-linecap:round;stroke-miterlimit:10;" id="shape_40"/></g><g id="I16"><path d="M 991.5672670107766 375.00000000000006L 989.2782938194707 375.00000000000006M 991.5672670107766 405.00000000000006L 991.5672670107766 345.00000000000006" style="fill:none;stroke:#000000;stroke-width:2;stroke-linecap:round;stroke-miterlimit:10;" id="shape_41"/></g><g id="I20"><path d="M 999.7901131293643 405.00000000000006L 991.5672670107766 405.00000000000006M 999.7901131293643 420L 999.7901131293643 390" style="fill:none;stroke:#000000;stroke-width:2;stroke-linecap:round;stroke-miterlimit:10;" id="shape_42"/></g><g id="I0"><path d="M 0 80.859375L 0 80.859375M 0 161.71875L 0 0" style="fill:none;stroke:#000000;stroke-width:2;stroke-linecap:round;stroke-miterlimit:10;" id="shape_43"/></g><g id="I15"><path d="M 989.2782938194707 337.5L 987.8560659443366 337.5M 989.2782938194707 375.00000000000006L 989.2782938194707 300.00000000000006" style="fill:none;stroke:#000000;stroke-width:2;stroke-linecap:round;stroke-miterlimit:10;" id="shape_44"/></g><g id="I9"><path d="M 1005 120L 999.9999999999993 120" style="fill:none;stroke:#aaaaaa;stroke-width:0.3;stroke-linecap:round;stroke-miterlimit:10;stroke-dasharray:5,10;" id="shape_45"/><text id="text_28" transform="matrix(1.0000,0.0000,0.0000,1.0000,1005.0000,126.60)" fill="#000000" style="font-size:20px;font-family:Arial;">Felis silvestris bieti</text><path d="M 999.9999999999993 120L 998.7975822100695 120" style="fill:none;stroke:#000000;stroke-width:2;stroke-linecap:round;stroke-miterlimit:10;" id="shape_46"/></g><g id="I14"><path d="M 987.8560659443366 303.75L 986.7948866068007 303.75M 987.8560659443366 337.5L 987.8560659443366 270.00000000000006" style="fill:none;stroke:#000000;stroke-width:2;stroke-linecap:round;stroke-miterlimit:10;" id="shape_47"/></g><g id="I3"><path d="M 990.402226467368 88.125L 989.6695729994061 88.125M 990.402226467368 116.25L 990.402226467368 60" style="fill:none;stroke:#000000;stroke-width:2;stroke-linecap:round;stroke-miterlimit:10;" id="shape_48"/></g><g id="I21"><path d="M 1005 390L 999.9999999999993 390" style="fill:none;stroke:#aaaaaa;stroke-width:0.3;stroke-linecap:round;stroke-miterlimit:10;stroke-dasharray:5,10;" id="shape_49"/><text id="text_29" transform="matrix(1.0000,0.0000,0.0000,1.0000,1005.0000,396.60)" fill="#000000" style="font-size:20px;font-family:Arial;">Panthera pardus japonensis</text><path d="M 999.9999999999993 390L 999.7901131293643 390" style="fill:none;stroke:#000000;stroke-width:2;stroke-linecap:round;stroke-miterlimit:10;" id="shape_50"/></g><g id="I26"><path d="M 1005 210.00000000000003L 999.9999999999991 210.00000000000003" style="fill:none;stroke:#aaaaaa;stroke-width:0.3;stroke-linecap:round;stroke-miterlimit:10;stroke-dasharray:5,10;" id="shape_51"/><text id="text_30" transform="matrix(1.0000,0.0000,0.0000,1.0000,1005.0000,216.60)" fill="#000000" style="font-size:20px;font-family:Arial;">Panthera tigris altaica</text><path d="M 999.9999999999991 210.00000000000003L 998.1248855409648 210.00000000000003" style="fill:none;stroke:#000000;stroke-width:2;stroke-linecap:round;stroke-miterlimit:10;" id="shape_52"/></g><g id="I8"><path d="M 1005 180L 999.9999999999993 180" style="fill:none;stroke:#aaaaaa;stroke-width:0.3;stroke-linecap:round;stroke-miterlimit:10;stroke-dasharray:5,10;" id="shape_53"/><text id="text_31" transform="matrix(1.0000,0.0000,0.0000,1.0000,1005.0000,186.60)" fill="#000000" style="font-size:20px;font-family:Arial;">Felis silvestris lybica</text><path d="M 999.9999999999993 180L 999.0782751517644 180" style="fill:none;stroke:#000000;stroke-width:2;stroke-linecap:round;stroke-miterlimit:10;" id="shape_54"/></g><g id="I25"><path d="M 998.1248855409648 225.00000000000003L 986.7948866068007 225.00000000000003M 998.1248855409648 240.00000000000003L 998.1248855409648 210.00000000000003" style="fill:none;stroke:#000000;stroke-width:2;stroke-linecap:round;stroke-miterlimit:10;" id="shape_55"/></g><g id="I2"><path d="M 989.6695729994061 59.06249999999999L 976.4670052437185 59.06249999999999M 989.6695729994061 88.125L 989.6695729994061 30" style="fill:none;stroke:#000000;stroke-width:2;stroke-linecap:round;stroke-miterlimit:10;" id="shape_56"/></g><g id="I18"><path d="M 1005 330.00000000000006L 999.9999999999991 330.00000000000006" style="fill:none;stroke:#aaaaaa;stroke-width:0.3;stroke-linecap:round;stroke-miterlimit:10;stroke-dasharray:5,10;" id="shape_57"/><text id="text_32" transform="matrix(1.0000,0.0000,0.0000,1.0000,1005.0000,336.60)" fill="#000000" style="font-size:20px;font-family:Arial;">Panthera leo persica</text><path d="M 999.9999999999991 330.00000000000006L 996.5246645751658 330.00000000000006" style="fill:none;stroke:#000000;stroke-width:2;stroke-linecap:round;stroke-miterlimit:10;" id="shape_58"/></g><g id="I23"><path d="M 1005 300.00000000000006L 999.9999999999991 300.00000000000006" style="fill:none;stroke:#aaaaaa;stroke-width:0.3;stroke-linecap:round;stroke-miterlimit:10;stroke-dasharray:5,10;" id="shape_59"/><text id="text_33" transform="matrix(1.0000,0.0000,0.0000,1.0000,1005.0000,306.60)" fill="#000000" style="font-size:20px;font-family:Arial;">Panthera uncia</text><path d="M 999.9999999999991 300.00000000000006L 989.2782938194707 300.00000000000006" style="fill:none;stroke:#000000;stroke-width:2;stroke-linecap:round;stroke-miterlimit:10;" id="shape_60"/></g><g id="I28"><path d="M 1005 0L 1000 0" style="fill:none;stroke:#aaaaaa;stroke-width:0.3;stroke-linecap:round;stroke-miterlimit:10;stroke-dasharray:5,10;" id="shape_61"/><text id="text_34" transform="matrix(1.0000,0.0000,0.0000,1.0000,1005.0000,6.60)" fill="#000000" style="font-size:20px;font-family:Arial;">Gallus gallus</text><path d="M 1000 0L 0 0" style="fill:none;stroke:#000000;stroke-width:2;stroke-linecap:round;stroke-miterlimit:10;" id="shape_62"/></g><g id="I10"><path d="M 1005 90L 999.9999999999993 90" style="fill:none;stroke:#aaaaaa;stroke-width:0.3;stroke-linecap:round;stroke-miterlimit:10;stroke-dasharray:5,10;" id="shape_63"/><text id="text_35" transform="matrix(1.0000,0.0000,0.0000,1.0000,1005.0000,96.60)" fill="#000000" style="font-size:20px;font-family:Arial;">Felis margarita</text><path d="M 999.9999999999993 90L 997.9498479782712 90" style="fill:none;stroke:#000000;stroke-width:2;stroke-linecap:round;stroke-miterlimit:10;" id="shape_64"/></g><g id="I1"><path d="M 976.4670052437185 161.71875L 0 161.71875M 976.4670052437185 264.375L 976.4670052437185 59.06249999999999" style="fill:none;stroke:#000000;stroke-width:2;stroke-linecap:round;stroke-miterlimit:10;" id="shape_65"/></g></g><g id="container_5"/><g id="container_6"/><g id="container_7"/><g id="container_8"/><g id="container_9"/></g><g id="container_10" transform="matrix(1.0000,0.0000,0.0000,1.0000,100.0000,100.00)"/><g id="container_11" transform="matrix(1.0000,0.0000,0.0000,1.0000,45.0000,36.00)"><path d="M 0 -3L 0 3M 0 0L 124.06747083592013 0M 124.06747083592013 -3L 124.06747083592013 3" style="fill:none;stroke:#000;stroke-width:0.5;stroke-linecap:round;stroke-miterlimit:10;" id="shape_67" transform="matrix(1.0322,0.0000,0.0000,1.0000,109.6338,8.00)"/><text id="text_36" transform="matrix(1.0000,0.0000,0.0000,1.0000,0.0000,10.22)" fill="#555" style="font-weight:bold;font-size:14px;font-family:Arial;">Tree scale: 100</text></g></g></svg>